# xmcd CD database file
#
# Track frame offsets:
#	150
#	26885
#	45990
#	70770
#	96990
#	117150
#	134265
#	157640
#	180435
#
# Disc length: 2676 seconds
#
# Revision: 3
# Processed by: cddbd v1.5PL3 Copyright (c) Steve Scherf et al.
# Submitted via: CDex 1.50beta8
#
DISCID=690a7209
DTITLE=VOIVOD - Nothingface
DYEAR=1989
DGENRE=Metal
TTITLE0=The Unknown Knows
TTITLE1=NothingFace
TTITLE2=Astronomy Domine
TTITLE3=Missing Sequences
TTITLE4=X-Ray Mirror
TTITLE5=Inner Combustion
TTITLE6=Pre-Ignition
TTITLE7=Into My Hypercube
TTITLE8=Sub-Effect
EXTD=YEAR: 1989
EXTT0=
EXTT1=
EXTT2=
EXTT3=
EXTT4=
EXTT5=
EXTT6=
EXTT7=
EXTT8=
PLAYORDER=
